<svg width="62" height="53" viewBox="0 0 62 53" fill="none" xmlns="http://www.w3.org/2000/svg">
    <rect width="62" height="53" rx="11" fill="#E9E4EF" />
    <path
        d="M19.3902 16C18.0719 16 17 17.0825 17 18.4137V33.5863C17 34.9176 18.0719 36 19.3902 36H42.6098C43.9281 36 45 34.9175 45 33.5863V18.4137C45 17.0824 43.9281 16 42.6098 16H19.3902ZM19.3902 16.6896H42.6098C42.9581 16.6896 43.2806 16.7931 43.5488 16.9698L32.1845 28.5751C31.5181 29.2554 30.46 29.2558 29.7944 28.5751L18.4514 16.9698C18.7196 16.7931 19.0421 16.6896 19.3903 16.6896H19.3902ZM17.9603 17.4546L26.689 26.3879L17.9603 34.545C17.7822 34.2727 17.6828 33.9413 17.6828 33.5861V18.4135C17.6828 18.0584 17.7822 17.7269 17.9603 17.4543V17.4546ZM44.0397 17.4546C44.2178 17.7273 44.3172 18.0587 44.3172 18.4139V33.5865C44.3172 33.9415 44.2178 34.2731 44.0397 34.5456L35.3006 26.3771L44.0397 17.4547V17.4546ZM34.8203 26.8725L43.549 35.0296C43.2807 35.2062 42.9581 35.3098 42.61 35.3098H19.3903C19.0421 35.3098 18.7196 35.2062 18.4514 35.0296L27.1692 26.883L29.3032 29.0596C30.2279 30.0054 31.7499 30.0041 32.6751 29.0596L34.82 26.8721L34.8203 26.8725Z"
        fill="black" />
</svg>