<svg width="62" height="53" viewBox="0 0 62 53" fill="none" xmlns="http://www.w3.org/2000/svg">
    <rect width="62" height="53" rx="11" fill="#E9E4EF" />
    <path
        d="M20.885 36V21.616H25.148V36H20.885ZM23.002 19.499C22.2867 19.499 21.7067 19.296 21.262 18.89C20.8173 18.484 20.595 17.9427 20.595 17.266C20.595 16.5893 20.8173 16.048 21.262 15.642C21.7067 15.236 22.2867 15.033 23.002 15.033C23.7173 15.033 24.2973 15.236 24.742 15.642C25.1867 16.048 25.409 16.5893 25.409 17.266C25.409 17.9427 25.1867 18.484 24.742 18.89C24.2973 19.296 23.7173 19.499 23.002 19.499ZM28.8996 36V21.616H32.3796L32.6696 23.443H32.7856C33.4043 22.863 34.081 22.3603 34.8156 21.935C35.5696 21.4903 36.43 21.268 37.3966 21.268C38.9626 21.268 40.0936 21.79 40.7896 22.834C41.505 23.8587 41.8626 25.27 41.8626 27.068V36H37.5996V27.619C37.5996 26.575 37.4546 25.8597 37.1646 25.473C36.894 25.0863 36.4493 24.893 35.8306 24.893C35.2893 24.893 34.8253 25.0187 34.4386 25.27C34.052 25.502 33.6266 25.8403 33.1626 26.285V36H28.8996Z"
        fill="black" />
</svg>