<svg width="73" height="41" viewBox="0 0 73 41" fill="none" xmlns="http://www.w3.org/2000/svg">
<rect x="0.5" y="0.5" width="72" height="40" rx="10.5" fill="#CECDE5" stroke="black"/>
<path d="M20.428 27H17.368V13.896H20.5L25.18 21.564V13.896H28.24V27H25.108L20.428 19.332V27ZM34.4655 27.216C31.4055 27.216 29.7855 25.11 29.7855 22.356C29.7855 19.602 31.4055 17.496 34.4655 17.496C37.5255 17.496 38.9475 19.62 38.9475 23.076H32.7195C32.8995 24.174 33.4935 24.948 34.4655 24.948C35.3295 24.948 35.7615 24.426 36.0135 23.85L38.6955 24.426C38.1195 26.01 36.6975 27.216 34.4655 27.216ZM34.4655 19.728C33.5655 19.728 32.9715 20.34 32.7555 21.348H36.0495C35.8875 20.232 35.2395 19.728 34.4655 19.728ZM42.0558 27H38.8698L41.7318 22.194L39.0138 17.712H42.3618L43.7298 20.07L45.0798 17.712H48.2478L45.6198 22.122L48.5358 27H45.1698L43.6038 24.21L42.0558 27ZM55.1078 20.196H53.0378V23.76C53.0378 24.3 53.4338 24.732 54.0638 24.732C54.2978 24.732 54.6038 24.678 55.0358 24.516L55.2698 26.964C54.8918 27.054 54.0638 27.216 53.2178 27.216C50.9138 27.216 50.0138 25.992 50.0138 23.4V20.196H48.6098V17.712H50.0138V15.678L53.0378 15.102V17.712H55.1078V20.196Z" fill="black"/>
</svg>
