<svg width="101" height="41" viewBox="0 0 101 41" fill="none" xmlns="http://www.w3.org/2000/svg">
<rect x="0.5" y="0.5" width="100" height="40" rx="10.5" fill="#F9F8FF" stroke="black"/>
<path d="M18.5 27H15.368V13.896H19.742C22.784 13.896 25.124 15.048 25.124 18.27C25.124 21.474 22.784 22.662 19.742 22.662H18.5V27ZM19.742 16.596H18.5V19.962H19.742C21.038 19.962 21.992 19.494 21.992 18.27C21.992 17.046 21.038 16.596 19.742 16.596ZM29.523 27H26.499V17.712H28.983V19.638C29.379 18.414 30.153 17.568 31.539 17.568C31.827 17.568 32.169 17.622 32.511 17.712L32.007 20.628C31.755 20.538 31.503 20.484 31.251 20.484C30.495 20.484 29.865 20.916 29.667 21.816C29.577 22.23 29.523 22.608 29.523 23.382V27ZM37.2383 27.216C34.1783 27.216 32.5583 25.11 32.5583 22.356C32.5583 19.602 34.1783 17.496 37.2383 17.496C40.2983 17.496 41.7203 19.62 41.7203 23.076H35.4923C35.6723 24.174 36.2663 24.948 37.2383 24.948C38.1023 24.948 38.5343 24.426 38.7863 23.85L41.4683 24.426C40.8923 26.01 39.4703 27.216 37.2383 27.216ZM37.2383 19.728C36.3383 19.728 35.7443 20.34 35.5283 21.348H38.8223C38.6603 20.232 38.0123 19.728 37.2383 19.728ZM48.3905 27H44.8265L41.7305 17.712H44.9345L46.6445 24.408L48.3545 17.712H51.4865L48.3905 27ZM55.3024 27H52.2784V17.712H55.3024V27ZM53.7904 16.452C52.8184 16.452 52.0444 15.678 52.0444 14.706C52.0444 13.752 52.8184 12.978 53.7904 12.978C54.7624 12.978 55.5364 13.752 55.5364 14.706C55.5364 15.678 54.7624 16.452 53.7904 16.452ZM61.3126 27.216C58.2526 27.216 56.6326 25.11 56.6326 22.356C56.6326 19.602 58.2526 17.496 61.3126 17.496C64.3726 17.496 65.9926 19.602 65.9926 22.356C65.9926 25.11 64.3726 27.216 61.3126 27.216ZM61.3126 24.732C62.4826 24.732 62.9686 23.706 62.9686 22.356C62.9686 21.006 62.4826 19.98 61.3126 19.98C60.1426 19.98 59.6566 21.006 59.6566 22.356C59.6566 23.706 60.1426 24.732 61.3126 24.732ZM76.0602 26.82L73.3242 27.072C73.1802 26.37 73.0902 25.902 73.0362 25.47C72.4782 26.478 71.5422 27.216 70.1202 27.216C68.1042 27.216 67.0422 25.866 67.0422 23.634V17.712H70.0662V22.842C70.0662 23.994 70.4442 24.48 71.1642 24.48C72.1722 24.48 72.5322 23.706 72.6402 22.914L72.6762 22.5V17.712H75.7002V22.68C75.7002 24.39 75.7362 24.822 76.0602 26.82ZM80.7001 27.216C79.0621 27.216 77.5321 26.658 76.6321 25.974L77.7481 24.066C78.3241 24.462 79.7101 24.912 80.7721 24.912C81.4381 24.912 81.7981 24.732 81.7981 24.354C81.7981 23.94 81.3661 23.76 80.6461 23.544L80.0521 23.364C78.2881 22.824 77.0461 22.194 77.0461 20.43C77.0461 18.414 78.7021 17.496 80.8081 17.496C82.3021 17.496 83.5801 17.982 84.3901 18.558L83.2741 20.466C82.7341 20.106 81.7981 19.8 81.0061 19.8C80.3581 19.8 80.0701 20.016 80.0701 20.304C80.0701 20.664 80.5021 20.862 81.1501 21.06L81.7441 21.24C83.5081 21.78 84.8221 22.32 84.8221 24.156C84.8221 26.208 82.9141 27.216 80.7001 27.216Z" fill="black"/>
</svg>
