<?xml version="1.0" encoding="UTF-8"?>
<svg id="Layer_1" data-name="Layer 1" xmlns="http://www.w3.org/2000/svg" viewBox="0 0 148.31 85.57">
  <defs>
    <style>
      .cls-1 {
        fill: #514377;
      }

      .cls-2 {
        fill: #b9a8cc;
      }

      .cls-3 {
        fill: #8f8ec3;
      }
    </style>
  </defs>
  <g>
    <path class="cls-1" d="M9.28,80.14q-.63-.73-1.36-.73c-1.25-.63-1.77-1.25-3.13-1.88,0-.63-.63-.63-.63-.63-2.61-1.88-3.44-4.48-4.17-7.72,0-3.13.31-5.73,1.04-8.97,1.25-1.88,1.77-3.75,2.5-5.11,0-.52,0,0,.63,0,.63-1.88,2.5-3.75,3.75-5.63,1.36-1.98,2.92-3.34,4.17-4.8.73-.52,1.36-.52,1.36-1.15.63-.63.94-.63,1.56-1.15-.94,1.15-2.19,3.13-2.5,3.13,0,1.25-.73.73-.73,1.98-1.36,2.61-4.38,8.03-4.38,9.07v1.04c-.73,1.36-.52,1.36-.73,2.61-.52,3.23-1.25,7.72,0,10.22.73,3.13,3.86,5.11,7.72,5.84,1.25,0,2.5-.21,3.23-.21,1.25,0,2.5-.1,3.13-.31.1.1,2.82-.73,3.23-.94,1.25-.42,2.61-.63,3.75-1.15,1.56-.52,5.21-1.88,7.72-3.75,1.98-1.46,3.23-2.82,4.48-4.07,2.61-3.75,7.09-6.88,7.09-12.09.63,0,.63-1.25.63-1.88,0-3.75.42-7.09-3.23-10.22-1.25-.52-2.5-1.98-3.75-2.4-2.09-.73-3.54-1.67-4.27-2.4l-3.23-1.88c-.63-.1-2.61-1.46-2.61-1.98-1.25-.73-2.29-1.46-3.65-3.54-.73-1.15-.94-2.29-1.67-2.92l-.21-1.25c-.31-.63,0-2.29.31-3.65.73-3.13,1.77-4.17,3.02-6.15l.63-.83c.94-1.25,2.4-2.29,3.96-3.65l1.15-.52s.42-.31.73-.73c1.25-.73,3.23-1.98,5.84-3.23.52-.63,1.15-.63,2.5-.94l1.25-.31c1.25-.63,2.61-1.36,3.23-1.36,1.15-.42,2.5,0,3.86,0v-.42c.63,0,1.15,1.15,1.88.42,1.36,1.36,2.5,1.98,3.23,3.86,0,.73,0,1.25-.73,1.98,0,0,0,.63.52.73-.63.1-1.15,1.15-.52.52,0,.63-.73,2.4-1.98,4.27-1.25,1.88-2.5,3.65-4.8,3.65-1.88.21-2.92-.21-3.75-.52,2.29-1.15,2.81-1.67,3.75-2.5l3.23-2.92c.63-.63,1.56-3.23,1.56-3.96,0-1.88-1.88-3.23-3.96-3.23-1.77,0-4.8.63-5.53,1.36,0,0-.73,0-1.25.63-1.25.73-1.46.94-1.98,1.25-.52,0-1.35,1.36-1.98,1.36-1.88,1.67-3.54,2.61-5.11,4.59-.42.73-1.56,1.25-2.61,3.65-1.15,1.88-1.25,2.82-1.36,4.59,0,1.88,1.04,3.44,2.82,5.11.63.63,1.88,1.15,2.5,1.98.63.52,1.36.52,1.88,1.04,0,.21.73.21,1.36.83l1.25.52c.73,0,.73.73,1.25.73.63.63,4.27,1.98,3.23,1.98.63,0,1.25,0,1.25.52.63,0,.63.63.63.63.73.73,1.35.73,1.98,1.25,2.5,2.71,5.11,5.73,4.38,10.84,0,1.36-.52,1.98-.52,3.23,0,1.36-.63,2.71-1.36,3.86l-.63.73c0,.63,0,1.15-.52,1.88,0,.63-.83,1.25-1.35,1.88,0-.42-2.92,3.96-3.86,4.38l-1.25,1.25c-1.25.73-1.98,1.98-3.23,3.23-.63,0-1.25,0-1.25.63-1.36.63-2.61,2.4-3.86,2.71l-.63.1c-1.25.42-1.98,1.36-2.5,1.88-1.98.73-3.34,1.46-4.59,2.19,0,0-.52,0-.52.31-.73,0-1.36.63-1.98.63,0,.63-.63.63-1.36,1.25-1.25,0-1.77.63-3.13,1.36-1.25,0-2.5,0-3.23.42-3.13,0-5.11-.42-7.61-.42Z"/>
    <path class="cls-1" d="M116.15,77.64c-2.19,0-3.44-.73-5-2.19-.73,0-1.56-1.36-2.29-1.98-.63-1.46-.94-2.82-.94-4.9-.1-3.02.31-4.69.31-6.88,1.36-8.97,2.61-13.35,3.75-16.27l.31-2.09q.73-.63.73-2.09c-.1-2.19,1.15-3.44,1.77-5.73.21-1.98,1.15-5.21,1.98-7.61,1.04-3.65,2.09-7.19,4.17-12.2-3.13,2.92-4.27,5.21-6.26,6.46-1.36,1.77-2.71,2.82-4.07,5.73-1.77,1.36-1.88,2.4-3.75,5.32-2.61,4.07-3.44,6.99-6.36,11.57-1.15,1.77-1.88,3.44-2.61,4.9-.63,1.46-1.36,2.92-2.71,4.17-1.25,3.02-1.15,3.75-3.75,7.82-.73,1.36-1.77,2.29-2.5,3.86-2.19,2.5-2.81,2.92-3.96,4.59-.52.42-3.75,3.65-4.17,3.65-.1-.52,1.04-1.77,1.25-2.08.83-1.25,1.67-2.5,2.29-3.65-.73-.73-.94-1.46-2.19-2.71-.42-1.46-.83-2.08-.94-4.27-1.15-14.18.42-25.65,2.29-37.01l-2.61,2.29c-2.08,2.92-3.34,4.38-6.15,8.13-1.98,2.92-3.54,5.32-5.42,8.86-2.08,3.54-3.13,7.3-5.84,14.18-.73,2.09-1.56,4.38-2.82,7.09-.94,2.71-2.5,5.11-3.75,8.65-1.36,0-1.98,3.34-3.44,2.71-.1-2.19.73-4.9,1.04-7.09.94-3.23,2.19-6.26,3.34-9.28,1.46-3.65,2.92-6.67,4.8-9.8,1.25-2.09,2.19-3.44,3.13-5,2.09-3.13,3.34-5.32,4.69-6.99.52-1.04,4.48-6.78,5.42-7.92,1.04-1.77,4.17-5.42,5.53-6.99l2.19-2.19c.94-1.36,1.15-2.82,1.77-3.54.73-1.46,1.36-4.07,1.98-5.53.73-1.98,1.56-3.65,2.61-5.53,1.46-.52.83.1,1.46.83-.52,2.19-.83,3.75-1.15,5.94-.52,3.44-.94,7.09-1.25,9.7-.63,4.69-1.15,9.38-.94,9.91-.52,2.81-1.25,4.27-1.15,6.99l.21,6.36-.42,4.9c-.1.63,0,3.54.1,5.11-.1,2.61.1,3.44.1,5,1.46-2.29,3.02-4.69,4.27-6.88.94-1.88,1.88-3.54,2.5-5,2.61-4.59,5.42-8.86,7.92-12.62,2.09-2.82,3.23-4.27,3.96-5.94,1.36-1.46,2.09-3.34,3.44-4.8,3.34-3.65,3.54-4.9,6.15-6.99,3.02-3.02,6.26-6.99,8.55-8.86,1.98-1.98,3.65-1.36,5.73-.52-.73.63-1.36,2.29-1.56,3.02l-.83,2.71c-1.36,4.27-2.5,6.88-3.86,11.47-.94,4.8-1.25,4.69-2.09,8.55-.94,3.44-.94,4.07-.94,4.8-.63,2.92-1.67,4.9-2.29,7.92-.83,2.71-1.98,6.15-3.13,12.3-.42,3.54-.52,5.32-.42,9.18.42,2.71,1.04,3.86,1.67,4.9.31.63,1.25,2.08,1.88,2.92.63,0,3.02-.21,4.48-.83,2.81-.63,6.99-3.54,8.45-5.73,0,2.19-2.09,4.38-3.44,5-.63.73-2.08.73-2.08,1.46-2.19.73-2.19,1.46-4.17,2.19-2.19,0-3.54-.73-5-1.46Z"/>
  </g>
  <circle class="cls-2" cx="15.91" cy="8" r="8"/>
  <circle class="cls-3" cx="140.31" cy="77.57" r="8"/>
</svg>