<svg width="23" height="22" viewBox="0 0 34 28" fill="none" xmlns="http://www.w3.org/2000/svg">
    <path
        d="M16.8592 18.1927C20.017 18.1927 22.5769 15.7608 22.5769 12.7609C22.5769 9.761 20.017 7.3291 16.8592 7.3291C13.7014 7.3291 11.1415 9.761 11.1415 12.7609C11.1415 15.7608 13.7014 18.1927 16.8592 18.1927Z"
        fill="white" />
    <path
        d="M27.319 14.6431C27.4165 9.86951 22.8682 5.90524 17.1601 5.78866C11.4521 5.67208 6.7457 9.44734 6.6482 14.2209C6.55071 18.9945 11.099 22.9588 16.8071 23.0753C22.5152 23.1919 27.2215 19.4167 27.319 14.6431Z"
        fill="#FDA9FF" />
    <path
        d="M13.5153 23.8762C13.3609 24.0934 13.3552 24.3336 13.2923 24.5566C13.2694 24.6366 13.2637 24.7224 13.2294 24.8024C13.178 24.9168 13.0064 25.0025 12.8692 24.9911C12.7205 24.9854 12.5719 24.8882 12.5376 24.7624C12.5147 24.6824 12.509 24.5966 12.5204 24.5165C12.5605 24.3107 12.6119 24.1106 12.6576 23.9047C12.6748 23.8247 12.6748 23.7447 12.6805 23.6532C12.1945 23.4874 11.7371 23.3273 11.2454 23.1614C11.0624 23.3501 10.8966 23.5274 10.7308 23.6989C10.6393 23.7961 10.5478 23.899 10.4335 23.9791C10.3077 24.0706 10.1419 24.0591 10.0104 23.9734C9.87885 23.8876 9.81596 23.7561 9.87314 23.6417C9.91888 23.5502 9.98178 23.4702 10.0447 23.3902C10.1933 23.2072 10.3534 23.0299 10.5135 22.8413C9.94175 22.4925 9.38143 22.1551 8.79251 21.7949C8.68387 21.8521 8.59237 21.8864 8.51233 21.9379C8.11209 22.218 7.75188 22.5268 7.44885 22.8813C7.16296 23.2186 6.98 23.5846 6.89423 23.9848C6.81418 24.3336 6.84849 24.6766 7.00287 25.0083C7.24873 25.5343 7.63752 25.7573 8.31793 25.763C8.47231 25.763 8.62097 25.7516 8.76963 25.7344C8.9869 25.7058 9.20416 25.6715 9.42144 25.6429C10.2562 25.54 10.9252 25.763 11.3998 26.3462C11.5599 26.5463 11.6971 26.7522 11.8572 26.9523C11.9772 27.1067 12.0916 27.261 12.2403 27.3983C12.6462 27.7756 13.2237 27.8557 13.7669 27.6212C14.0585 27.4955 14.2872 27.3182 14.4873 27.1066C14.7446 26.8322 14.9333 26.5177 15.0762 26.1918C15.3278 25.6143 15.4936 25.0254 15.608 24.4193C15.6251 24.345 15.608 24.265 15.5965 24.1735C14.8876 24.0763 14.2072 23.9791 13.5096 23.8819L13.5153 23.8762Z"
        fill="#FDA9FF" />
    <path
        d="M19.1958 6.04235C19.2244 6.04235 19.2587 6.03092 19.3159 6.01948C19.333 5.97946 19.3674 5.928 19.3845 5.87654C19.4417 5.65927 19.4931 5.442 19.556 5.22473C19.6246 4.96171 19.7962 4.82448 20.0077 4.87022C20.2707 4.9274 20.3508 5.07034 20.3108 5.32764C20.2822 5.49345 20.2422 5.65355 20.2136 5.81936C20.1907 5.96802 20.0935 6.10525 20.1335 6.27106C20.5852 6.43116 21.0312 6.59125 21.4772 6.75135C21.7345 6.57982 21.9117 6.37397 22.089 6.17385C22.169 6.08809 22.2433 5.99089 22.3405 5.91656C22.4835 5.80221 22.655 5.79078 22.8037 5.87654C22.9695 5.96802 23.0267 6.1224 22.9352 6.27678C22.8837 6.36254 22.8151 6.44259 22.7465 6.52263C22.5807 6.71132 22.4149 6.9 22.2434 7.0944C22.798 7.43746 23.3411 7.77481 23.9072 8.12359C24.0387 8.05497 24.1988 7.9978 24.3189 7.91204C24.7591 7.609 25.1536 7.26594 25.4681 6.8657C25.754 6.49977 25.9198 6.09381 25.9713 5.65927C26.0113 5.30477 25.9255 4.96743 25.7311 4.65296C25.5196 4.3099 25.1765 4.12692 24.7248 4.09262C24.5247 4.07547 24.3189 4.09262 24.1188 4.11549C23.8157 4.14408 23.5184 4.19554 23.2153 4.22413C22.472 4.28703 21.8946 4.04116 21.4657 3.54944C21.3171 3.37791 21.197 3.19495 21.0598 3.0177C20.9283 2.85189 20.8196 2.68035 20.6653 2.53169C20.2136 2.06856 19.556 1.98852 18.9442 2.30299C18.6984 2.42878 18.4811 2.58887 18.3325 2.78899C18.1495 3.03485 17.9608 3.28643 17.8293 3.54944C17.5434 4.10977 17.389 4.71013 17.2575 5.31049C17.2289 5.44199 17.1832 5.57922 17.269 5.71645C17.9208 5.81937 18.5612 5.92799 19.213 6.03091L19.1958 6.04235Z"
        fill="#FDA9FF" />
    <path
        d="M8.80396 7.60924C8.90116 7.67785 9.02122 7.7293 9.11271 7.77504C9.69591 7.46057 10.2448 7.16325 10.7937 6.86593C10.8051 6.86022 10.8166 6.84307 10.8223 6.83163C10.828 6.82019 10.828 6.80304 10.8337 6.77445C10.7651 6.6944 10.6851 6.60864 10.6108 6.51144C10.4907 6.35706 10.3706 6.2084 10.2677 6.0483C10.1648 5.88821 10.2162 5.73955 10.382 5.64235C10.5364 5.55087 10.7365 5.5623 10.8795 5.70525C10.9881 5.80816 11.0739 5.93395 11.1711 6.0483C11.314 6.21411 11.4398 6.4028 11.6685 6.51144C12.1316 6.3685 12.5891 6.22556 13.0579 6.08261C13.0351 5.95111 13.0122 5.84247 12.995 5.73955C12.9607 5.53371 12.9093 5.32788 12.8978 5.12204C12.8864 4.90477 13.0465 4.75039 13.2637 4.74467C13.4582 4.73895 13.6182 4.86475 13.6583 5.06487C13.6869 5.20209 13.704 5.33931 13.7326 5.47653C13.7669 5.62519 13.7612 5.77957 13.9041 5.90536C14.5788 5.84246 15.2535 5.77957 15.9968 5.71096C15.9854 5.56802 15.9968 5.44223 15.9682 5.32216C15.8825 4.92764 15.8024 4.5274 15.6938 4.13288C15.5794 3.72693 15.4136 3.33241 15.1677 2.96076C14.9905 2.70346 14.7789 2.46904 14.493 2.28607C13.8469 1.86868 13.1208 1.92586 12.6119 2.44617C12.4518 2.60626 12.3261 2.78923 12.1831 2.96076C12.0287 3.14372 11.8858 3.33241 11.7085 3.49822C11.3197 3.86415 10.8223 4.0414 10.2162 3.98994C10.0161 3.97279 9.81598 3.93276 9.61586 3.90989C9.27852 3.86987 8.94691 3.80125 8.60956 3.78982C8.10641 3.77838 7.73476 3.97279 7.50033 4.33872C7.35167 4.57314 7.26018 4.82472 7.24303 5.09345C7.20872 5.63663 7.40313 6.13407 7.74619 6.60292C8.03207 6.986 8.39228 7.31763 8.79824 7.62066H8.80967L8.80396 7.60924Z"
        fill="#FDA9FF" />
    <path
        d="M5.05431 14.1847C5.17438 13.6015 5.28873 13.0469 5.40308 12.4865C5.24299 12.3836 5.05431 12.3665 4.87134 12.3379C4.68837 12.3093 4.50541 12.2864 4.32245 12.2407C4.17379 12.2064 4.07659 12.0634 4.08802 11.9491C4.09374 11.8118 4.23096 11.6918 4.40821 11.6746C4.48826 11.6689 4.57974 11.6689 4.65979 11.6746C4.85991 11.6975 5.06002 11.7318 5.26014 11.7547C5.39165 11.7718 5.52316 11.7833 5.67754 11.8004C5.88337 11.4116 6.08349 11.0342 6.28361 10.6626C6.1178 10.4682 5.89481 10.3653 5.69469 10.2338C5.57462 10.1594 5.44883 10.0851 5.34019 9.99934C5.20869 9.89071 5.20868 9.73061 5.3116 9.62197C5.42023 9.5019 5.59177 9.46188 5.7633 9.52477C5.88337 9.57623 5.99771 9.63913 6.11207 9.70203C6.30647 9.81066 6.50087 9.92502 6.70099 10.0394C7.12981 9.57624 7.54721 9.13025 7.97031 8.66712C7.93029 8.60423 7.90742 8.54133 7.85025 8.48987C7.42714 8.06676 6.95257 7.6894 6.36937 7.40923C5.96913 7.21483 5.5346 7.10048 5.07146 7.05474C4.60261 7.009 4.15663 7.07761 3.74496 7.26057C3.35615 7.42639 3.13888 7.69512 3.11601 8.05533C3.10457 8.24973 3.12744 8.44414 3.15031 8.63854C3.1789 8.83294 3.24179 9.02162 3.27038 9.21602C3.3733 9.83353 3.12744 10.3367 2.50421 10.7026C2.26979 10.8398 2.01821 10.9485 1.77235 11.0743C1.57223 11.1772 1.36639 11.2744 1.18343 11.3945C0.657401 11.749 0.565929 12.2521 0.926143 12.7381C1.09767 12.9668 1.32637 13.1555 1.58938 13.3099C1.90957 13.4986 2.25835 13.6358 2.63 13.7501C3.28182 13.9503 3.96222 14.0761 4.64834 14.1847C4.77413 14.2018 4.91136 14.1904 5.04859 14.1961L5.05431 14.1847Z"
        fill="#FDA9FF" />
    <path
        d="M25.055 23.2526C24.7691 22.8867 24.4203 22.5608 24.0372 22.2635C23.9172 22.1663 23.7914 22.0691 23.5855 22.0576C23.3225 22.212 23.0595 22.3778 22.7794 22.5322C22.5049 22.6866 22.2247 22.8352 21.9274 22.9953C22.1104 23.224 22.2819 23.4299 22.442 23.6414C22.5049 23.7215 22.5564 23.813 22.5964 23.9044C22.6421 24.0302 22.5678 24.156 22.4363 24.2246C22.2991 24.299 22.1333 24.2932 22.0132 24.2017C21.916 24.1217 21.8417 24.0302 21.7616 23.9387C21.5844 23.7386 21.4071 23.5328 21.2013 23.2984C20.9097 23.3956 20.6752 23.4642 20.4408 23.5499C20.2121 23.63 19.9491 23.6471 19.7547 23.7958C19.789 23.9559 19.8347 24.1046 19.8576 24.2589C19.8862 24.4247 19.9091 24.5906 19.9148 24.7564C19.9148 24.9679 19.7947 25.0937 19.5946 25.1223C19.4059 25.1452 19.2287 25.0251 19.1772 24.8307C19.1486 24.7221 19.1315 24.6134 19.1143 24.4991C19.0915 24.3218 19.0514 24.1446 18.9428 23.9559C18.5826 23.9673 18.2452 24.0417 17.8965 24.0874C17.5534 24.1274 17.1932 24.0988 16.8387 24.2075C16.8444 24.3618 16.833 24.4991 16.8673 24.6363C16.9873 25.128 17.0903 25.6197 17.2561 26.1C17.3647 26.4145 17.5534 26.7175 17.7364 27.0149C17.8736 27.2436 18.0851 27.4265 18.3253 27.5866C18.9714 28.0097 19.6918 27.9583 20.2064 27.438C20.3894 27.255 20.5266 27.0492 20.6924 26.8605C20.8582 26.6718 21.0183 26.4717 21.2184 26.3059C21.5729 26.0028 22.0189 25.8484 22.5449 25.8885C22.8823 25.9171 23.2139 25.9799 23.5455 26.0257C23.7971 26.0543 24.0487 26.0943 24.3003 26.0886C24.7176 26.0886 25.0436 25.9228 25.2608 25.6312C25.5067 25.3053 25.6153 24.9451 25.581 24.562C25.541 24.0988 25.3695 23.6643 25.0664 23.2698L25.055 23.2526Z"
        fill="#FDA9FF" />
    <path
        d="M27.5866 15.6769C27.5409 15.9628 27.4837 16.2372 27.4494 16.5117C27.4094 16.7976 27.2664 17.072 27.2721 17.3808C27.4894 17.4265 27.6838 17.4723 27.8782 17.5066C28.0783 17.5409 28.2785 17.5637 28.4786 17.6095C28.6272 17.6438 28.7359 17.7696 28.7416 17.8897C28.753 18.0154 28.6501 18.1412 28.5072 18.1813C28.41 18.2041 28.307 18.2156 28.2098 18.2041C27.9754 18.1813 27.741 18.1412 27.5066 18.1012C27.3408 18.0783 27.1807 18.0498 26.9977 18.0212C26.9005 18.2213 26.809 18.3928 26.729 18.5758C26.6432 18.7702 26.4945 18.9417 26.4431 19.1475C26.6718 19.3534 26.9291 19.5135 27.1864 19.6621C27.3007 19.725 27.4094 19.7936 27.5009 19.8737C27.6209 19.9823 27.6152 20.1481 27.5066 20.2568C27.3979 20.3711 27.2207 20.4054 27.0492 20.3368C26.9291 20.2854 26.8147 20.2225 26.7004 20.1596C26.4774 20.0338 26.2658 19.9023 26.0085 19.7479C25.7855 19.9709 25.6255 20.2168 25.4253 20.434C25.2138 20.6627 24.9965 20.8914 24.7792 21.1201C24.865 21.2345 24.9222 21.3374 25.0079 21.4232C25.4025 21.812 25.8484 22.1551 26.3745 22.4238C26.7576 22.6182 27.1692 22.7383 27.6095 22.8011C28.1241 22.8755 28.6215 22.8069 29.0847 22.6067C29.3991 22.4695 29.5992 22.258 29.6736 21.9664C29.7307 21.7605 29.7193 21.5547 29.6793 21.3489C29.6221 21.063 29.5592 20.7714 29.5306 20.4855C29.4792 19.9766 29.7193 19.5649 30.1996 19.2505C30.3711 19.1361 30.5598 19.0446 30.7428 18.9474C30.9257 18.8502 31.1259 18.7702 31.3088 18.673C31.4632 18.5872 31.6176 18.5015 31.7491 18.3928C32.1207 18.0841 32.1722 17.7124 31.9892 17.3179C31.8749 17.0663 31.6519 16.8662 31.4003 16.6947C31.0973 16.4888 30.7599 16.3344 30.394 16.2087C29.7822 15.9971 29.1361 15.8656 28.49 15.757C28.2098 15.7112 27.9297 15.6369 27.5752 15.6883H27.5809L27.5866 15.6769Z"
        fill="#FDA9FF" />
    <path
        d="M25.3101 8.76982C25.1958 8.86702 25.1214 8.9928 25.0242 9.10716C25.07 9.17577 25.1043 9.22151 25.1386 9.26725C25.4416 9.63318 25.7504 10.0048 26.0591 10.3708C26.1049 10.4222 26.1678 10.468 26.2249 10.5194C26.3565 10.4394 26.4651 10.3708 26.5794 10.3136C26.791 10.205 27.0026 10.0849 27.2255 9.98769C27.4257 9.90192 27.6029 9.94765 27.7173 10.0792C27.8316 10.2107 27.8087 10.3765 27.6486 10.4908C27.5229 10.5823 27.3742 10.6509 27.237 10.7253C27.0025 10.8568 26.7624 10.9826 26.5794 11.177C26.7853 11.5543 26.9168 11.9374 27.1341 12.3033C27.3742 12.2633 27.5858 12.2233 27.803 12.2004C28.0375 12.1776 28.2776 12.1661 28.512 12.1661C28.7007 12.1661 28.8265 12.2862 28.8551 12.4291C28.878 12.5835 28.7579 12.7207 28.552 12.7608C28.4034 12.7893 28.249 12.8008 28.1003 12.8179C27.8488 12.8465 27.6029 12.8694 27.3628 12.9609C27.4371 13.4926 27.5114 14.0129 27.5915 14.5332C27.5972 14.5733 27.6258 14.6076 27.6544 14.6533C27.8545 14.6933 28.0603 14.6819 28.2604 14.6533C28.8265 14.5675 29.3925 14.4818 29.9529 14.3731C30.3817 14.2931 30.7877 14.1559 31.1707 13.9729C31.4623 13.8357 31.7254 13.6584 31.9312 13.4354C32.3886 12.9323 32.3086 12.3662 31.7082 11.9546C31.5138 11.8231 31.2908 11.7201 31.0793 11.5944C30.8448 11.4571 30.5933 11.3313 30.3817 11.177C29.9128 10.8453 29.707 10.4165 29.7756 9.91335C29.7985 9.74754 29.8442 9.58744 29.8785 9.42163C29.9243 9.20436 29.9929 8.98708 30.0043 8.76409C30.0444 8.27237 29.7871 7.90644 29.2267 7.69489C28.8665 7.55766 28.4834 7.48334 28.0889 7.51193C27.5743 7.54623 27.094 7.66058 26.6481 7.87214C26.1449 8.11228 25.7103 8.41531 25.3215 8.76409L25.3101 8.76982Z"
        fill="#FDA9FF" />
    <path
        d="M1.57221 15.9394C1.28632 16.0881 1.03475 16.2711 0.84607 16.5055C0.47442 16.9743 0.554471 17.4832 1.06334 17.8549C1.24059 17.9864 1.44643 18.0893 1.64084 18.1979C1.86383 18.3237 2.09825 18.4381 2.31552 18.5753C2.9559 18.9812 3.19604 19.513 3.04166 20.1591C3.00163 20.3363 2.93875 20.5079 2.90444 20.6851C2.87013 20.8624 2.84726 21.0453 2.84726 21.2226C2.84726 21.6171 3.07025 21.9087 3.49336 22.1031C3.93934 22.3032 4.41962 22.3833 4.91706 22.3261C6.0949 22.1889 6.96399 21.6514 7.67299 20.9138C7.68442 20.9024 7.68441 20.8852 7.70157 20.8452C7.6158 20.7537 7.51861 20.6394 7.42141 20.5307C7.31277 20.4049 7.19842 20.2849 7.08979 20.1591C6.99259 20.0447 6.90682 19.9247 6.8039 19.8103C6.70099 19.6902 6.64953 19.5359 6.46656 19.4444C6.2836 19.5416 6.11778 19.6273 5.94625 19.7131C5.81474 19.776 5.68895 19.8446 5.55173 19.8961C5.3802 19.959 5.21439 19.9132 5.10575 19.7874C5.00283 19.6674 5.00854 19.513 5.14576 19.4101C5.2544 19.3243 5.38591 19.2614 5.5117 19.1871C5.71754 19.0727 5.94624 18.9755 6.10062 18.7811C5.91766 18.398 5.73469 18.0149 5.54601 17.609C5.39735 17.6261 5.26584 17.6433 5.13433 17.6547C4.8656 17.6776 4.59687 17.7119 4.32814 17.7062C4.1223 17.7062 3.97935 17.5575 3.98507 17.4032C3.98507 17.2659 4.10514 17.1344 4.28811 17.1116C4.52253 17.0773 4.75697 17.0601 4.99139 17.0258C5.10003 17.0086 5.20295 16.9686 5.3173 16.9343C5.22582 16.3511 5.13433 15.7908 5.04285 15.2133C4.91134 15.2133 4.79698 15.1904 4.68263 15.2133C4.06512 15.3048 3.44761 15.3963 2.84154 15.5163C2.39556 15.6021 1.97816 15.7507 1.58936 15.9509L1.57221 15.9394Z"
        fill="#FDA9FF" />
    <path
        d="M16.5602 6.44291C10.5395 6.28853 6.04539 10.188 5.92532 14.6707C5.79381 19.4506 10.4652 23.3387 16.1199 23.4416C21.809 23.596 26.5719 19.9252 26.7263 15.2367C26.8749 10.7312 22.6152 6.60301 16.5545 6.44291H16.5602ZM15.1708 12.658C15.0736 13.0125 14.9078 13.3442 14.6391 13.6358C14.216 14.0932 13.77 14.0817 13.3869 13.5957C13.2668 13.4471 13.1696 13.2755 13.101 13.1097C12.7294 12.1377 12.7351 11.1657 13.1582 10.2109C13.284 9.91927 13.4555 9.65053 13.7357 9.43898C13.9072 9.30747 14.0959 9.23314 14.336 9.30175C14.3646 9.30747 14.3818 9.34178 14.4218 9.37608C14.376 9.51903 14.113 9.51902 14.0559 9.68484C14.1874 9.94213 14.5076 10.1251 14.6105 10.4396C14.2674 10.4453 13.9872 10.2795 13.6213 10.2909C13.5012 10.7712 13.5127 11.2057 13.7185 11.6346C13.7986 11.8004 13.9129 11.9605 14.0501 12.0977C14.2903 12.3207 14.5933 12.4236 14.965 12.3264C15.045 12.3093 15.1251 12.2978 15.2051 12.2807C15.2909 12.4236 15.2051 12.538 15.1708 12.6523V12.658ZM19.9508 12.6066C19.865 12.9611 19.7278 13.3041 19.4762 13.6072C19.3562 13.7501 19.1961 13.8873 19.0245 13.996C18.8301 14.116 18.6129 14.0932 18.4127 13.9731C18.2126 13.853 18.0868 13.6929 17.9782 13.5157C17.8009 13.2241 17.7037 12.9153 17.6466 12.6009C17.5151 11.8461 17.5494 11.1085 17.8524 10.3824C17.9725 10.0908 18.1383 9.81635 18.3956 9.59336C18.5785 9.43326 18.7901 9.33034 19.076 9.41039C19.0989 9.41611 19.1217 9.44469 19.1732 9.49044C19.0302 9.59335 18.8987 9.67912 18.773 9.77061C18.9273 10.0508 19.2189 10.2452 19.3562 10.5482C19.0074 10.5654 18.7272 10.3938 18.3842 10.3995C18.3498 10.4682 18.3041 10.5425 18.2869 10.6168C18.2126 11.0685 18.2869 11.5031 18.5328 11.9147C18.5957 12.0234 18.6872 12.132 18.7958 12.2235C19.036 12.4179 19.3219 12.5265 19.6706 12.4408C19.7507 12.4236 19.8307 12.4122 19.9451 12.395C19.9451 12.4865 19.9508 12.5494 19.9451 12.6123L19.9508 12.6066Z"
        fill="#FDA9FF" />
    <path
        d="M7.54339 6.18543C7.44619 5.96816 7.37186 5.81378 7.30897 5.65941C7.10885 5.15053 7.00022 4.63022 7.16032 4.1042C7.22321 3.90408 7.29182 3.69824 7.40045 3.51527C7.77782 2.86346 8.46394 2.41748 9.63607 2.52039C10.0077 2.54898 10.3737 2.61188 10.7339 2.69193C11.2485 2.80056 11.6315 2.66334 11.9289 2.32028C12.0832 2.14303 12.2205 1.94863 12.3806 1.77138C12.5521 1.5827 12.7122 1.3883 12.9237 1.22249C13.5984 0.685025 14.5361 0.604975 15.3652 0.98806C15.8398 1.20533 16.1885 1.5198 16.4744 1.89717C16.8003 2.326 17.0062 2.79485 17.1605 3.28657C17.2063 3.43523 17.252 3.58389 17.3092 3.77829C17.3778 3.68681 17.4407 3.64106 17.4579 3.58388C17.5951 3.15506 17.7609 2.73195 18.0068 2.33743C18.2183 2.00009 18.4585 1.68561 18.813 1.43975C19.0302 1.29109 19.2647 1.14815 19.5219 1.04523C20.3167 0.730759 21.1972 0.856549 21.8204 1.37686C22.0434 1.56554 22.2207 1.79425 22.4037 2.01152C22.558 2.19449 22.6838 2.39461 22.8382 2.57758C23.1126 2.9092 23.4786 3.05214 23.9817 2.96637C24.3134 2.9092 24.6507 2.88061 24.9881 2.84631C25.1196 2.83487 25.2568 2.82915 25.394 2.83487C26.3146 2.88061 26.9549 3.2637 27.3152 3.95554C27.6582 4.63023 27.6239 5.31063 27.338 5.99103C27.2637 6.174 27.1722 6.34552 27.075 6.53993C27.2408 6.60282 27.3552 6.51706 27.4695 6.48275C28.1156 6.27692 28.7789 6.20259 29.465 6.28835C29.9453 6.34553 30.3798 6.49419 30.7686 6.73433C31.2261 7.02022 31.4833 7.39759 31.552 7.86072C31.5977 8.18091 31.552 8.5011 31.4776 8.81557C31.4319 8.99282 31.3804 9.16435 31.3347 9.3416C31.2604 9.65607 31.3747 9.91908 31.672 10.1249C31.855 10.2507 32.0551 10.3536 32.2495 10.468C32.4954 10.6109 32.7584 10.7481 32.9928 10.9082C33.353 11.1541 33.5989 11.4686 33.7018 11.8517C33.8276 12.3262 33.7018 12.7608 33.3873 13.161C33.0957 13.5269 32.6955 13.8014 32.2324 14.0129C31.7578 14.2302 31.2489 14.3732 30.7229 14.4875C30.5342 14.5275 30.3226 14.5275 30.1683 14.619C30.1683 14.7219 30.2483 14.7162 30.3055 14.7334C30.7572 14.8592 31.2146 14.9678 31.6491 15.1222C32.1866 15.3051 32.6669 15.5739 33.0443 15.9455C33.3244 16.2143 33.5303 16.5173 33.6046 16.8661C33.7247 17.4264 33.5474 17.9181 33.0671 18.3184C32.8556 18.4956 32.5926 18.6328 32.3467 18.7701C32.1123 18.9016 31.855 19.0102 31.6148 19.1417C31.186 19.3704 31.0202 19.6849 31.1346 20.108C31.2032 20.3653 31.2489 20.6283 31.2832 20.8913C31.3061 21.0571 31.3004 21.2229 31.2832 21.3887C31.2146 21.9891 30.843 22.4237 30.1969 22.7038C29.425 23.0354 28.6073 23.0755 27.7783 22.8811C27.521 22.8239 27.2694 22.7267 27.0121 22.6524C26.9378 22.6295 26.8749 22.5666 26.7548 22.6295C26.8006 22.7381 26.8406 22.8525 26.892 22.9611C27.1036 23.4242 27.1951 23.8988 27.1436 24.3905C27.1093 24.6993 27.0064 24.9909 26.8406 25.2653C26.4175 25.9743 25.657 26.3346 24.5821 26.2374C24.2105 26.203 23.8445 26.1344 23.4843 26.0601C22.9926 25.9629 22.6209 26.0944 22.3351 26.4203C22.1864 26.5861 22.0606 26.7691 21.9062 26.9349C21.7233 27.135 21.5574 27.3466 21.3402 27.5181C20.654 28.0727 19.7049 28.1528 18.8587 27.7525C18.3727 27.5238 18.0182 27.1922 17.7323 26.8034C17.3892 26.3345 17.1891 25.8142 17.0348 25.2882C17.0119 25.2082 16.9719 25.1338 16.9433 25.0538C16.9433 25.0424 16.9147 25.0424 16.8689 25.0195C16.8175 25.1624 16.7603 25.2939 16.7146 25.4369C16.5602 25.8771 16.3601 26.306 16.0685 26.6948C15.8112 27.0435 15.491 27.3409 15.0736 27.5638C14.5075 27.8669 13.8957 27.9698 13.2325 27.7868C12.8151 27.6725 12.4778 27.4667 12.2147 27.1808C12.0318 26.9806 11.8774 26.7634 11.7116 26.5518C11.5915 26.3974 11.4829 26.2431 11.3457 26.1001C11.1112 25.8485 10.7968 25.7342 10.408 25.7799C10.0592 25.82 9.70468 25.8771 9.35018 25.9057C9.13291 25.9229 8.90993 25.9343 8.69265 25.9057C7.67491 25.7914 7.00023 25.231 6.77152 24.3448C6.62286 23.7673 6.71433 23.2127 6.97163 22.6695C7.04024 22.5151 7.12029 22.3665 7.1889 22.2235C7.08598 22.1435 7.01166 22.2007 6.94304 22.2235C6.51994 22.3608 6.07967 22.4637 5.61654 22.4923C4.99331 22.538 4.39867 22.4408 3.84405 22.2007C3.05501 21.8633 2.67765 21.3201 2.68336 20.6054C2.68336 20.331 2.77485 20.0565 2.82631 19.7821C2.85489 19.6334 2.90064 19.4848 2.92351 19.3304C2.96926 19.0445 2.86061 18.8044 2.59188 18.6214C2.42035 18.507 2.2374 18.4041 2.05443 18.3012C1.82001 18.164 1.56842 18.0439 1.34543 17.8952C0.339115 17.2263 0.224774 16.2028 1.03669 15.3909C1.35116 15.0764 1.74567 14.842 2.19165 14.659C2.68909 14.4475 3.22656 14.3217 3.76974 14.2131C3.88409 14.1902 3.99271 14.1673 4.16424 14.133C4.07276 14.0816 4.02702 14.0358 3.96984 14.0244C3.5696 13.91 3.15794 13.8185 2.76342 13.6928C2.35175 13.5612 1.96867 13.3783 1.62561 13.1439C1.30542 12.9266 1.03668 12.6807 0.847992 12.3777C0.413448 11.6916 0.556386 10.9197 1.23679 10.3936C1.45406 10.2278 1.72279 10.0906 1.96865 9.95338C2.19164 9.82759 2.4318 9.72468 2.66051 9.6046C3.03787 9.40449 3.20367 9.12432 3.12934 8.75268C3.07788 8.50681 3.02642 8.26095 2.9864 8.00937C2.96353 7.86071 2.94067 7.70634 2.94639 7.55196C2.98641 6.83725 3.38093 6.31123 4.17569 6.00247C4.91327 5.71659 5.67943 5.69943 6.45704 5.87096C6.79438 5.94529 7.126 6.05965 7.54339 6.17972V6.18543ZM16.8346 22.8811C22.5237 23.0297 27.2866 19.3647 27.4409 14.6762C27.5896 10.1707 23.3299 6.04249 17.2692 5.8824C11.2485 5.72802 6.75436 9.62748 6.63428 14.1101C6.5085 18.8901 11.1741 22.7781 16.8289 22.8811H16.8346ZM28.3615 14.0873C28.5616 14.1273 28.7674 14.1159 28.9676 14.0873C29.5336 14.0015 30.094 13.9157 30.66 13.8071C31.0888 13.7271 31.4948 13.5898 31.8779 13.4069C32.1752 13.2696 32.4325 13.0924 32.6383 12.8694C33.09 12.3662 33.0157 11.8002 32.4153 11.3942C32.2209 11.2627 31.9979 11.1541 31.7864 11.034C31.552 10.8968 31.3004 10.771 31.0888 10.6166C30.62 10.285 30.4141 9.85619 30.4828 9.35303C30.5056 9.18722 30.5514 9.02713 30.5857 8.86131C30.6314 8.64404 30.7 8.42677 30.7172 8.2095C30.7572 7.71778 30.4999 7.35184 29.9396 7.14028C29.5794 7.00306 29.202 6.92873 28.8018 6.95732C28.2872 6.99163 27.8069 7.10598 27.3609 7.31753C26.8577 7.55196 26.4289 7.86072 26.0344 8.2095C25.92 8.3067 25.8457 8.43248 25.7485 8.54684C25.7942 8.61545 25.8286 8.66119 25.8629 8.70693C26.1659 9.07286 26.4747 9.44451 26.7834 9.81044C26.8292 9.8619 26.892 9.90765 26.9492 9.95911C27.0807 9.87906 27.1894 9.81045 27.3037 9.75327C27.5153 9.64463 27.7268 9.52456 27.9498 9.42736C28.1442 9.34159 28.3272 9.38734 28.4415 9.51884C28.5559 9.65035 28.533 9.81616 28.3729 9.93052C28.2471 10.022 28.0985 10.0906 27.9613 10.1707C27.7268 10.3022 27.4867 10.4279 27.3037 10.6224C27.5095 10.9997 27.6411 11.3828 27.8583 11.7487C28.0985 11.7087 28.31 11.6687 28.5273 11.6458C28.7617 11.623 29.0019 11.6115 29.2363 11.6115C29.425 11.6115 29.5508 11.7316 29.5794 11.8745C29.6022 12.0289 29.4822 12.1661 29.2763 12.2062C29.1277 12.229 28.9733 12.2462 28.8246 12.2633C28.573 12.2919 28.3272 12.3148 28.087 12.4063C28.1614 12.938 28.2357 13.4583 28.3157 13.9786C28.3215 14.0187 28.35 14.053 28.3786 14.0987L28.3615 14.0873ZM28.2986 15.1107C28.2529 15.3966 28.1957 15.6711 28.1614 15.9455C28.1213 16.2314 27.9784 16.5001 27.9841 16.8146C28.2071 16.8603 28.3958 16.9061 28.5902 16.9404C28.7903 16.9804 28.9904 16.9976 29.1906 17.0433C29.3392 17.0776 29.4478 17.2034 29.4536 17.3235C29.465 17.4435 29.3621 17.5751 29.2191 17.6151C29.1277 17.638 29.019 17.6494 28.9218 17.638C28.6874 17.6151 28.453 17.5751 28.2185 17.535C28.0527 17.5122 27.8926 17.4836 27.7097 17.455C27.6125 17.6551 27.5267 17.8266 27.4409 18.0096C27.3552 18.204 27.2065 18.3755 27.1551 18.5871C27.3838 18.7929 27.6411 18.953 27.8983 19.1017C28.0127 19.1646 28.1214 19.2332 28.2128 19.3132C28.3329 19.4219 28.3272 19.5877 28.2243 19.6963C28.1156 19.8107 27.9384 19.845 27.7669 19.7764C27.6468 19.7249 27.5324 19.662 27.4181 19.5991C27.1951 19.4733 26.9835 19.3418 26.7262 19.1874C26.5032 19.4162 26.3431 19.6563 26.143 19.8736C25.9315 20.1023 25.7142 20.331 25.4969 20.5597C25.5827 20.674 25.6399 20.777 25.7256 20.8627C26.1202 21.2515 26.5661 21.5946 27.0922 21.8633C27.4752 22.0577 27.8869 22.1778 28.3272 22.2407C28.8418 22.315 29.3392 22.2464 29.8023 22.0463C30.1168 21.9091 30.3169 21.6975 30.3913 21.4059C30.4484 21.2001 30.437 20.9942 30.397 20.7884C30.3398 20.5025 30.2769 20.2109 30.2483 19.925C30.1969 19.4161 30.437 19.0045 30.9173 18.69C31.0888 18.5756 31.2775 18.4842 31.4605 18.387C31.6434 18.2898 31.8436 18.2097 32.0265 18.1125C32.1809 18.0325 32.3353 17.941 32.4668 17.8323C32.8384 17.5236 32.8899 17.152 32.7069 16.7574C32.5869 16.5059 32.3696 16.3057 32.1237 16.1342C31.8207 15.9284 31.4833 15.774 31.1174 15.6482C30.5056 15.4366 29.8595 15.3051 29.2134 15.1965C28.9333 15.1508 28.6531 15.0821 28.2929 15.1279L28.2986 15.1107ZM24.6164 7.57483C24.7479 7.50622 24.908 7.44904 25.0281 7.36327C25.4683 7.06024 25.8629 6.71717 26.1773 6.31694C26.4632 5.951 26.629 5.54505 26.6805 5.1105C26.7205 4.75601 26.6348 4.42439 26.4403 4.1042C26.2288 3.76113 25.8857 3.57817 25.434 3.54386C25.2339 3.52671 25.0281 3.54386 24.828 3.56673C24.5249 3.59532 24.2276 3.64678 23.9246 3.67537C23.1756 3.73826 22.6038 3.49241 22.1749 3.00069C22.0263 2.82916 21.9062 2.64619 21.769 2.46894C21.6432 2.30312 21.5289 2.1316 21.3802 1.98294C20.9228 1.51981 20.2652 1.43975 19.6592 1.75423C19.4133 1.88002 19.196 2.04011 19.0474 2.24023C18.8587 2.48609 18.6757 2.73767 18.5442 3.00069C18.2583 3.56102 18.104 4.16137 17.9725 4.76173C17.9439 4.89323 17.8981 5.03046 17.9839 5.16769C18.6357 5.2706 19.2818 5.37924 19.9279 5.48216C19.9565 5.48216 19.9908 5.47072 20.048 5.45928C20.0651 5.41926 20.0994 5.3678 20.1166 5.31634C20.1738 5.09907 20.2252 4.8818 20.2881 4.66453C20.3567 4.40151 20.5283 4.26429 20.7398 4.31003C21.0028 4.36721 21.0829 4.51015 21.0429 4.76745C21.0143 4.93326 20.9742 5.09336 20.9456 5.25917C20.9228 5.40783 20.8256 5.54505 20.8656 5.71086C21.3173 5.87096 21.7633 6.03105 22.2093 6.19115C22.4666 6.01962 22.6438 5.81378 22.821 5.61366C22.9011 5.5279 22.9754 5.4307 23.0726 5.35066C23.2156 5.2363 23.3871 5.22486 23.5358 5.31063C23.7016 5.40211 23.7588 5.55649 23.6673 5.71086C23.6158 5.79663 23.5472 5.87668 23.4786 5.95673C23.3128 6.14541 23.147 6.3341 22.9754 6.5285C23.53 6.87156 24.0675 7.20318 24.6393 7.55768L24.6164 7.57483ZM21.9062 22.7438C21.6146 22.841 21.3802 22.9097 21.1515 22.9954C20.9228 23.0755 20.6598 23.0926 20.4654 23.2413C20.4997 23.4014 20.5454 23.55 20.5683 23.7044C20.5969 23.8702 20.6197 24.036 20.6255 24.2018C20.6255 24.4134 20.5054 24.5392 20.3053 24.5678C20.1166 24.5907 19.9393 24.4706 19.8879 24.2762C19.8593 24.1675 19.8421 24.0589 19.825 23.9446C19.8021 23.7673 19.7621 23.5901 19.6535 23.4014C19.299 23.4128 18.9559 23.4871 18.6071 23.5329C18.2641 23.5729 17.9038 23.5443 17.5493 23.653C17.5551 23.8073 17.5436 23.9446 17.5779 24.0818C17.6923 24.5735 17.8009 25.0652 17.9667 25.5455C18.0754 25.86 18.2641 26.163 18.447 26.4603C18.5842 26.6833 18.7958 26.872 19.0359 27.0321C19.682 27.4552 20.4025 27.4038 20.9171 26.8834C21.1 26.7005 21.2373 26.4946 21.4031 26.306C21.5689 26.1173 21.729 25.9172 21.9291 25.7513C22.2836 25.4483 22.7353 25.2882 23.2556 25.334C23.5929 25.3625 23.9246 25.4254 24.2619 25.4712C24.5135 25.4998 24.7651 25.5398 25.0166 25.5341C25.434 25.5341 25.7599 25.3683 25.9772 25.0767C26.2231 24.7508 26.3317 24.3905 26.2974 24.0074C26.2574 23.5443 26.0859 23.1098 25.7828 22.7153C25.4969 22.3493 25.1539 22.0234 24.7651 21.7261C24.645 21.6289 24.5192 21.5317 24.3134 21.5203C24.0504 21.6746 23.7873 21.8405 23.5072 22.0005C23.2327 22.1549 22.9526 22.3036 22.6552 22.4637C22.8382 22.6924 23.0097 22.8982 23.1698 23.1098C23.2327 23.1898 23.2842 23.2813 23.3242 23.3728C23.3699 23.4986 23.2956 23.6244 23.1641 23.693C23.0269 23.7673 22.8611 23.7616 22.741 23.6701C22.6438 23.5958 22.5695 23.4986 22.4894 23.4071C22.3122 23.207 22.1349 23.0011 21.9234 22.7667L21.9062 22.7438ZM16.726 5.13909C16.7146 4.99615 16.726 4.87037 16.6974 4.7503C16.6116 4.35006 16.5316 3.95554 16.423 3.56102C16.3143 3.15506 16.1485 2.76054 15.8969 2.38889C15.7197 2.13159 15.5081 1.89717 15.2223 1.71421C14.5762 1.29682 13.85 1.35399 13.3411 1.8743C13.181 2.0344 13.0552 2.21736 12.9123 2.38889C12.7579 2.57186 12.615 2.76054 12.4377 2.92635C12.0489 3.29229 11.5515 3.46953 10.9454 3.41808C10.7453 3.40092 10.5452 3.3609 10.3451 3.33803C10.0077 3.29229 9.6761 3.22939 9.33876 3.21795C8.8356 3.20652 8.46395 3.40092 8.22952 3.76685C8.08086 4.00128 7.98937 4.25285 7.97222 4.52158C7.93791 5.06476 8.13232 5.5622 8.47538 6.03105C8.76126 6.41414 9.12148 6.74577 9.52743 7.05452C9.62463 7.12313 9.74471 7.17459 9.83619 7.22033C10.4194 6.90586 10.9683 6.60854 11.5172 6.31122C11.5286 6.3055 11.5401 6.28835 11.5458 6.27692C11.5515 6.26548 11.5515 6.24832 11.5572 6.21974C11.4886 6.13969 11.4086 6.05393 11.3342 5.96244C11.2141 5.80806 11.0941 5.65941 10.9912 5.49931C10.8882 5.33922 10.9397 5.19055 11.1055 5.09335C11.2599 5.00187 11.46 5.01902 11.603 5.15625C11.7116 5.25917 11.7974 5.38496 11.8946 5.49931C12.0375 5.66512 12.1633 5.85381 12.392 5.96244C12.8551 5.8195 13.3125 5.67656 13.7814 5.53362C13.7585 5.40211 13.7357 5.29919 13.7185 5.19055C13.6842 4.98472 13.6327 4.77889 13.6213 4.57305C13.6099 4.35578 13.77 4.2014 13.9872 4.19568C14.1816 4.18996 14.3417 4.31575 14.3818 4.51587C14.4103 4.65309 14.4275 4.79032 14.4561 4.92754C14.4904 5.0762 14.4847 5.23058 14.6276 5.35637C15.308 5.29348 15.977 5.23058 16.7203 5.16197H16.726V5.13909ZM9.51028 21.2287C9.40164 21.2858 9.31017 21.3201 9.23012 21.3716C8.82988 21.6518 8.46966 21.9605 8.16662 22.315C7.88074 22.6524 7.69779 23.0183 7.61202 23.4185C7.53197 23.7616 7.56626 24.1104 7.72064 24.442C7.9665 24.968 8.35531 25.191 9.03572 25.1967C9.1901 25.1967 9.33876 25.1853 9.48742 25.1681C9.70469 25.1395 9.92196 25.1052 10.1392 25.0767C10.974 24.9737 11.643 25.1967 12.1175 25.7799C12.2776 25.9743 12.4149 26.1859 12.575 26.386C12.695 26.5404 12.8094 26.6948 12.958 26.832C13.364 27.2094 13.9415 27.2894 14.4847 27.055C14.7763 26.9292 15.005 26.7519 15.2051 26.5404C15.4624 26.2602 15.6511 25.9515 15.794 25.6256C16.0456 25.0481 16.2114 24.4592 16.3258 23.8531C16.3429 23.7787 16.3258 23.693 16.3143 23.6072C15.6053 23.51 14.9249 23.4128 14.2274 23.3156C14.073 23.5329 14.0673 23.773 14.0044 23.996C13.9815 24.0761 13.9758 24.1618 13.9415 24.2419C13.89 24.3562 13.7185 24.442 13.5756 24.4306C13.4269 24.4248 13.2839 24.3276 13.2439 24.2018C13.2211 24.1218 13.2153 24.036 13.2268 23.956C13.2668 23.7502 13.3183 23.55 13.364 23.3442C13.3812 23.2641 13.3811 23.1841 13.3869 23.0926C12.9009 22.9268 12.4435 22.7667 11.9517 22.6009C11.7688 22.7896 11.6029 22.9668 11.4371 23.1384C11.3457 23.2356 11.2542 23.3385 11.1398 23.4185C11.014 23.51 10.8482 23.4929 10.7167 23.4128C10.5852 23.327 10.5223 23.1955 10.5795 23.0812C10.6252 22.9897 10.6881 22.9097 10.751 22.8296C10.8997 22.6466 11.0598 22.4694 11.2199 22.2807C10.6481 21.9319 10.0878 21.5946 9.49885 21.2344L9.51028 21.2287ZM8.68693 8.10086C8.64691 8.04368 8.62404 7.97507 8.56686 7.92361C8.14376 7.5005 7.66919 7.12314 7.08599 6.84297C6.68575 6.64857 6.25121 6.53421 5.78808 6.48847C5.31923 6.44273 4.87325 6.51706 4.46157 6.69431C4.07277 6.86012 3.85549 7.12885 3.83262 7.48906C3.82119 7.68346 3.84406 7.87787 3.86693 8.07227C3.89552 8.26667 3.95841 8.45535 3.98699 8.64975C4.08991 9.26726 3.84405 9.77042 3.22083 10.1364C2.9864 10.2736 2.73482 10.3822 2.48896 10.508C2.28885 10.6109 2.08301 10.7081 1.90004 10.8282C1.37402 11.1827 1.28826 11.6858 1.64276 12.1718C1.80857 12.4006 2.04298 12.5892 2.30599 12.7436C2.62618 12.9323 2.97497 13.0695 3.34662 13.1839C3.99843 13.384 4.67884 13.5098 5.36496 13.6184C5.49075 13.6356 5.62798 13.6241 5.7652 13.6299C5.88527 13.0467 5.99962 12.492 6.11397 11.9374C5.95388 11.8345 5.7652 11.8174 5.58223 11.7888C5.39927 11.7602 5.21631 11.7373 5.03334 11.6916C4.88468 11.6573 4.78748 11.52 4.79891 11.4C4.80463 11.2627 4.94185 11.1427 5.1191 11.1255C5.19915 11.1198 5.29063 11.1198 5.37068 11.1255C5.5708 11.1484 5.77091 11.1827 5.97103 11.2056C6.10254 11.2227 6.23405 11.2341 6.38843 11.2513C6.59427 10.8625 6.79438 10.4851 6.9945 10.1135C6.82869 9.91908 6.60571 9.81616 6.4113 9.68465C6.29123 9.61032 6.16545 9.536 6.05681 9.45023C5.9253 9.3416 5.92529 9.1815 6.02821 9.07286C6.13685 8.95279 6.30838 8.91277 6.47991 8.97566C6.59999 9.02141 6.71433 9.09002 6.82868 9.1472C7.02309 9.25583 7.21749 9.37018 7.4176 9.48454C7.84643 9.02141 8.25811 8.57542 8.68693 8.11229V8.10086ZM5.74233 14.6419C5.61082 14.6419 5.49075 14.619 5.38211 14.6362C4.7646 14.7277 4.14709 14.8191 3.54102 14.9392C3.09504 15.025 2.67764 15.1736 2.28884 15.3738C2.00296 15.5224 1.74567 15.7054 1.5627 15.9398C1.19105 16.4086 1.2711 16.9175 1.77998 17.2892C1.95723 17.415 2.16307 17.5236 2.35747 17.6322C2.58046 17.758 2.81488 17.8724 3.03215 18.0096C3.67253 18.4156 3.91267 18.9473 3.75829 19.5934C3.71827 19.7706 3.65538 19.9422 3.62107 20.1194C3.58677 20.2967 3.56389 20.4796 3.56389 20.6569C3.56389 21.0514 3.78688 21.343 4.20999 21.5374C4.65597 21.7375 5.13625 21.8176 5.63369 21.7604C6.81153 21.6232 7.68063 21.0857 8.38962 20.3424C8.40105 20.331 8.40105 20.3138 8.4182 20.2738C8.33243 20.1823 8.23524 20.068 8.13804 19.9593C8.0294 19.8335 7.91506 19.7135 7.80642 19.5877C7.70922 19.4733 7.62345 19.3533 7.52054 19.2389C7.41762 19.1188 7.36616 18.9645 7.1832 18.873C7.00023 18.9645 6.83441 19.0559 6.66288 19.1417C6.53138 19.2046 6.40559 19.2732 6.26836 19.3247C6.09683 19.3876 5.93102 19.3418 5.82238 19.216C5.71947 19.096 5.72517 18.9416 5.86239 18.8387C5.97103 18.7529 6.10255 18.69 6.22833 18.6157C6.43417 18.5013 6.66288 18.4041 6.81726 18.2097C6.63429 17.8266 6.45132 17.4435 6.26264 17.0376C6.11398 17.0547 5.97675 17.0719 5.85097 17.0776C5.58223 17.1005 5.3135 17.1348 5.04477 17.1291C4.83893 17.1291 4.696 16.9804 4.696 16.826C4.696 16.6945 4.81607 16.5573 4.99904 16.5344C5.23346 16.5001 5.46788 16.483 5.7023 16.4487C5.81094 16.4315 5.91386 16.3915 6.02821 16.3572C5.93673 15.774 5.84525 15.2137 5.74805 14.6362L5.74233 14.6419Z"
        fill="black" />
    <path
        d="M21.6825 11.0112C21.6425 11.7374 21.5281 12.3549 21.2365 12.9381C21.0879 13.2354 20.8992 13.5098 20.6305 13.75C19.8872 14.4132 18.9152 14.3789 18.2348 13.6699C17.9146 13.3326 17.7202 12.9495 17.5944 12.5435C17.2913 11.5315 17.3657 10.5309 17.7659 9.5532C17.8917 9.25017 18.0689 8.97 18.3034 8.7127C18.4806 8.52402 18.6865 8.36393 18.938 8.24386C19.4469 8.01515 19.9443 8.04374 20.4246 8.31247C20.7219 8.484 20.9392 8.71842 21.1107 8.97572C21.3566 9.34737 21.4996 9.7476 21.5796 10.1593C21.6368 10.4737 21.6539 10.7939 21.6825 11.0112ZM19.8929 8.91854C19.8414 8.8728 19.8243 8.84421 19.7957 8.83849C19.5155 8.75844 19.304 8.86708 19.1153 9.02146C18.8523 9.24445 18.6922 9.51889 18.5721 9.8105C18.2691 10.5309 18.229 11.2742 18.3663 12.029C18.4234 12.3434 18.5149 12.6579 18.6979 12.9438C18.8065 13.121 18.938 13.2811 19.1324 13.4012C19.3326 13.5213 19.5498 13.5441 19.7442 13.4241C19.9157 13.3154 20.0758 13.1839 20.1959 13.0353C20.4418 12.7322 20.579 12.3892 20.6648 12.0347C20.6819 11.9718 20.6648 11.9032 20.6648 11.8174C20.5447 11.8403 20.4646 11.846 20.3903 11.8632C20.0358 11.9489 19.7557 11.846 19.5155 11.6459C19.4069 11.5601 19.3211 11.4515 19.2525 11.3371C19.0124 10.9254 18.9323 10.4909 19.0066 10.0392C19.0181 9.95916 19.0695 9.89055 19.1038 9.82193C19.4469 9.81622 19.7214 9.99346 20.0758 9.97059C19.9386 9.66755 19.647 9.47315 19.4869 9.19299C19.6184 9.1015 19.7442 9.01574 19.8929 8.91282V8.91854Z"
        fill="black" />
    <path
        d="M16.9019 11.0508C16.919 11.6798 16.7932 12.2916 16.4788 12.8691C16.3644 13.0806 16.2215 13.2922 16.0557 13.4808C15.9184 13.6352 15.7469 13.7782 15.5582 13.8868C14.9807 14.2356 14.3346 14.2013 13.7857 13.8182C13.4827 13.6066 13.2769 13.3322 13.1111 13.0406C12.7966 12.4745 12.6765 11.8742 12.6765 11.2567C12.6765 10.6849 12.7566 10.1246 12.9738 9.57567C13.0939 9.27263 13.2483 8.98103 13.4713 8.71802C13.6542 8.50074 13.8715 8.30634 14.1517 8.16912C14.6663 7.91754 15.1809 7.92898 15.6783 8.20914C16.0099 8.39211 16.2386 8.65512 16.4159 8.94672C16.7189 9.43844 16.8619 9.96447 16.9076 10.5134C16.9247 10.6906 16.9076 10.8736 16.8962 11.0508H16.9019ZM14.3346 9.73576C14.6949 9.72433 14.9807 9.89014 15.3238 9.88442C15.2152 9.56995 14.9007 9.38699 14.7692 9.12969C14.8206 8.96388 15.0837 8.96387 15.1351 8.82093C15.0951 8.78091 15.0779 8.75232 15.0493 8.7466C14.8092 8.67799 14.6205 8.75232 14.449 8.88383C14.1688 9.09538 13.9973 9.36411 13.8715 9.65572C13.4541 10.6106 13.4427 11.5826 13.8143 12.5546C13.8772 12.7261 13.9801 12.8919 14.1002 13.0406C14.4833 13.5209 14.9236 13.5323 15.3524 13.0806C15.6211 12.789 15.7869 12.4574 15.8841 12.1029C15.9184 11.9885 16.0099 11.8742 15.9184 11.7312C15.8384 11.7484 15.7583 11.7541 15.6783 11.777C15.3066 11.8742 15.0036 11.777 14.7635 11.5483C14.6205 11.4168 14.5062 11.251 14.4318 11.0851C14.2317 10.662 14.2146 10.2218 14.3346 9.74148V9.73576Z"
        fill="black" />
    <path
        d="M20.243 16.2028C20.0486 16.1342 19.8771 16.0828 19.7112 16.0142C19.5626 15.9513 19.494 15.8197 19.5168 15.6997C19.5454 15.5682 19.6998 15.4538 19.8656 15.4424C19.8999 15.4424 19.9342 15.4424 19.9686 15.4424C20.5803 15.5053 21.6724 16.1971 21.7124 16.8604C21.7124 16.929 21.7239 16.9976 21.7124 17.0662C21.6838 17.2149 21.5466 17.3292 21.3865 17.3464C21.2264 17.3692 21.0606 17.2892 20.9806 17.1463C20.9406 17.0776 20.9234 16.9976 20.8719 16.8718C20.7404 16.9976 20.6375 17.0834 20.546 17.1748C19.8999 17.7809 19.088 18.1468 18.1046 18.2555C17.6586 18.3069 17.2241 18.2555 16.8009 18.1411C16.6923 18.1125 16.5837 18.0611 16.4922 18.0039C16.355 17.9181 16.3264 17.758 16.3893 17.6208C16.4522 17.495 16.578 17.4207 16.7438 17.4207C16.8753 17.4207 17.0125 17.455 17.144 17.4836C18.339 17.7352 19.6884 17.1977 20.243 16.2028Z"
        fill="black" />
</svg>