<svg width="23" height="22" viewBox="0 0 43 42" fill="none" xmlns="http://www.w3.org/2000/svg">
    <path d="M0.824848 14.5254L0 35.2576L19.8363 41.9998L20.702 20.2432L0.824848 14.5254Z"
        fill="#925FFF" />
    <path d="M20.7034 20.2434L41.4402 15.9932L40.6256 36.4699L19.8377 42L20.7034 20.2434Z"
        fill="#874FFF" />
    <path d="M0.0172424 14.3549L20.703 20.2436L20.9684 13.5626L0.268948 8.02734L0.0172424 14.3549Z"
        fill="#C7ACFF" />
    <path
        d="M20.967 13.5621C21.1966 13.5113 42.4547 9.6123 42.4547 9.6123L42.2004 16.015L20.7017 20.2424L20.9679 13.5614L20.967 13.5621Z"
        fill="#BA9AFF" />
    <path d="M0.267303 8.02714L21.3111 4.91602L42.4544 9.61253L20.9667 13.5624L0.267303 8.02714Z"
        fill="#925FFF" />
    <path
        d="M41.4318 16.167L20.7017 20.2435L20.6431 21.7177C20.6431 21.7177 33.4214 19.1426 36.958 19.0322C40.4947 18.9217 41.3034 19.3694 41.3034 19.3694L41.4309 16.1677L41.4318 16.167Z"
        fill="#6E2AFF" />
    <path d="M0.824107 14.5254L20.7012 20.2432L20.6425 21.7174L0.807098 14.9547L0.824107 14.5254Z"
        fill="#6E2AFF" />
    <path d="M7.16821 9.87256L5.63586 37.1732L10.5229 38.8344L10.619 10.7952L7.16821 9.87256Z"
        fill="#AE48FF" />
    <path d="M30.3678 11.8244L29.7488 39.4255L34.521 38.1133L34.1196 11.0107L30.3678 11.8244Z"
        fill="#AE48FF" />
    <path d="M10.6181 10.7952L33.3889 7.59861L29.0938 6.64502L7.1673 9.87249L10.6181 10.7952Z"
        fill="#AE48FF" />
    <path d="M30.5118 11.8083L11.201 6.4108L14.7921 5.87988L34.2721 11.0248L30.5118 11.8083Z"
        fill="#AE48FF" />
    <path
        d="M20.557 8.74285C20.1496 8.81427 19.7279 8.77819 19.3146 8.73696C16.738 8.48144 14.1852 8.04183 11.6911 7.42402C10.5346 7.13758 9.36371 6.80033 8.41726 6.15748C8.06181 5.91596 7.73612 5.62583 7.54734 5.27016C7.35856 4.9145 7.32115 4.48447 7.52523 4.1347C7.84922 3.58242 8.64005 3.3895 9.34755 3.29525C10.4309 3.15166 11.5398 3.10674 12.6206 3.26137C13.6129 3.40349 14.5619 3.70981 15.5033 4.01467C16.0645 4.19655 16.6292 4.3799 17.1479 4.64058C17.6088 4.87327 18.0271 5.16486 18.4294 5.46825C19.1539 6.01536 19.8333 6.60666 20.4617 7.23699C20.71 7.48588 21.1684 7.82534 21.2857 8.14419C21.426 8.52562 20.9218 8.67805 20.5561 8.74211L20.557 8.74285Z"
        fill="white" />
    <path
        d="M20.4805 8.18162C20.3444 8.25158 20.1727 8.2339 20.0162 8.2096C17.517 7.82081 15.4566 6.29727 13.0467 5.60583C11.7141 5.22292 10.2992 5.10216 8.95729 4.74502C8.56782 4.6412 8.12139 4.45048 8.08227 4.09923C8.04911 3.80248 8.33653 3.55359 8.62905 3.39601C9.65628 2.84153 10.9573 2.843 12.1538 3.00426C14.7601 3.35551 17.2372 4.39451 19.1709 5.9475C19.563 6.26193 19.9363 6.60507 20.2126 7.00344C20.3665 7.22509 20.8657 7.98428 20.4813 8.18088L20.4805 8.18162Z"
        fill="#FF96FB" />
    <path
        d="M15.3866 2.03616C14.6128 1.51629 13.7956 1.0244 12.8729 0.739431C11.9503 0.454459 10.9035 0.392605 10.003 0.726177C9.22234 1.01557 8.60838 1.58256 8.20446 2.22909C7.80054 2.87561 7.31924 3.49637 7.38982 4.59649C8.46552 2.67091 13.969 4.542 16.8509 5.76068C18.5031 6.45949 19.9717 7.48008 21.1163 8.72674C21.2022 8.82026 21.6682 8.26947 21.6962 8.20614C21.8187 7.92558 21.6954 7.8247 21.4981 7.6141C21.0483 7.13399 20.6486 6.61781 20.2005 6.13475C19.2982 5.16349 18.3127 4.2504 17.254 3.40506C16.6545 2.92643 16.0312 2.46914 15.3866 2.03616Z"
        fill="#AE48FF" />
    <path opacity="0.31"
        d="M9.76326 1.47931C10.0677 1.33204 10.4172 1.26871 10.7641 1.24441C12.1723 1.14721 13.5491 1.67813 14.7013 2.38577C14.8067 2.45057 14.9173 2.52347 14.9606 2.62951C15.004 2.73481 14.9453 2.87987 14.8169 2.89681C14.7464 2.90638 14.6783 2.87619 14.6154 2.84821C14.1179 2.62509 13.5992 2.43658 13.0677 2.28415C12.5516 2.13688 11.9759 2.02569 11.4776 2.21346C11.1842 2.32392 10.9521 2.52568 10.6927 2.68915C10.4333 2.85262 10.1111 2.98296 9.80068 2.91521C9.6289 2.87766 9.47499 2.78267 9.29896 2.77089C9.16121 2.76205 8.63739 2.98517 8.55405 2.90417C8.46646 2.81875 8.70456 2.54114 8.75473 2.4653C9.00729 2.08018 9.30747 1.70022 9.76496 1.48005L9.76326 1.47931Z"
        fill="white" />
    <path
        d="M14.7532 12.0712C14.5287 12.5528 14.4786 13.0808 14.4471 13.5992C14.3748 14.8017 14.3927 16.0086 14.4998 17.2096C14.8638 16.809 15.2277 16.4084 15.5925 16.0078C16.3604 16.9518 17.2227 17.9526 18.4973 18.2906C18.13 17.4518 17.8035 16.5859 17.7524 15.6905C17.7006 14.795 17.9506 13.8562 18.624 13.1751C18.9786 12.8164 19.4319 12.5433 19.8775 12.2708C20.7355 11.7465 21.585 11.2053 22.3393 10.572C22.71 10.2605 23.0808 9.87026 23.0348 9.42476C22.9753 8.84893 22.2381 8.49916 21.5722 8.46381C20.9914 8.43289 20.4038 8.56837 19.9098 8.83346C19.5229 9.04112 19.3111 9.35849 18.9667 9.59707C18.5024 9.91812 17.8553 9.99544 17.3102 10.167C16.7975 10.3283 16.3051 10.547 15.874 10.8371C15.391 11.1618 14.9854 11.5764 14.7558 12.0705L14.7532 12.0712Z"
        fill="#AE48FF" />
    <path
        d="M24.9207 9.63379C26.6792 9.56163 28.4216 9.30464 30.1784 9.20965C31.9353 9.11392 33.7423 9.18682 35.3801 9.74646C35.8563 9.90919 36.318 10.1139 36.7134 10.3967C38.0391 11.3436 38.3937 13.0085 38.1505 14.482C38.6514 13.7876 39.1522 13.0925 39.6522 12.3974C40.023 13.0461 40.307 13.7316 40.4984 14.4363C41.1106 13.4909 41.228 12.3156 40.8121 11.2936C40.3972 10.2707 39.4558 9.41804 38.2959 9.0123C37.7976 8.83852 37.2678 8.74427 36.7415 8.65369C35.7313 8.47991 34.7185 8.31644 33.7066 8.15223C32.0347 7.88199 30.3604 7.61101 28.6699 7.44827C27.0542 7.2929 25.3008 7.26492 23.9436 8.04031C23.555 8.26195 23.3943 8.89522 23.5439 9.26929C23.7276 9.72878 24.4606 9.65294 24.9198 9.63453L24.9207 9.63379Z"
        fill="#AE48FF" />
    <path
        d="M23.7778 8.89775C24.1869 8.96402 24.6069 8.92205 25.0194 8.87566C27.5917 8.58627 30.136 8.11278 32.619 7.46184C33.7704 7.15993 34.9354 6.80722 35.8708 6.15186C36.222 5.90517 36.5426 5.61137 36.7245 5.25349C36.9074 4.89489 36.9371 4.46485 36.7262 4.11803C36.3929 3.56944 35.5987 3.38755 34.8895 3.30287C33.8036 3.17327 32.6938 3.14308 31.6164 3.31171C30.6266 3.46634 29.6836 3.78593 28.7473 4.1033C28.1886 4.29254 27.6274 4.48326 27.1138 4.75129C26.6563 4.98988 26.2439 5.28663 25.8468 5.5959C25.1325 6.15259 24.4632 6.75273 23.8459 7.39115C23.6018 7.64299 23.1494 7.98834 23.038 8.30939C22.9045 8.6923 23.4113 8.8381 23.7778 8.89775Z"
        fill="white" />
    <path
        d="M23.8455 8.33572C23.9833 8.40347 24.1542 8.38433 24.3098 8.35782C26.8014 7.93662 28.8354 6.38584 31.2326 5.662C32.5583 5.26215 33.9716 5.12224 35.3066 4.74744C35.6944 4.63845 36.1374 4.44185 36.1698 4.0906C36.197 3.79385 35.9062 3.54864 35.6111 3.39474C34.5736 2.85425 33.2734 2.87266 32.0795 3.04939C29.48 3.4345 27.0208 4.50665 25.1151 6.08467C24.729 6.40425 24.3617 6.75181 24.0921 7.1546C23.9425 7.37846 23.4561 8.14427 23.8447 8.33572H23.8455Z"
        fill="#FF96FB" />
    <path
        d="M28.8297 2.12387C29.5941 1.59369 30.4028 1.09149 31.3195 0.794005C32.237 0.496515 33.283 0.420669 34.1886 0.743195C34.9735 1.02228 35.5977 1.58118 36.0135 2.22181C36.4293 2.86318 36.9208 3.47731 36.8698 4.5789C35.7609 2.66731 30.2906 4.61057 27.43 5.86754C25.7905 6.5877 24.3398 7.62818 23.2173 8.88883C23.1331 8.98308 22.6569 8.43891 22.6289 8.37632C22.5013 8.09724 22.6229 7.99488 22.8168 7.78134C23.2581 7.29534 23.6484 6.774 24.0881 6.28505C24.9733 5.30201 25.9427 4.37567 26.9861 3.51707C27.5771 3.03033 28.1919 2.56495 28.8288 2.12387H28.8297Z"
        fill="#AE48FF" />
    <path opacity="0.31"
        d="M32.1895 1.1881C32.2235 1.37661 32.4463 1.48559 32.6436 1.57101C33.2941 1.85082 33.9846 2.21606 34.1938 2.81914C34.2457 2.96862 34.2686 3.13357 34.3826 3.2536C34.5195 3.39792 34.7491 3.43989 34.9608 3.47377C35.193 3.51058 35.4251 3.54814 35.6581 3.58496C35.7772 3.6041 35.92 3.61588 35.9983 3.53636C36.0408 3.49291 36.0518 3.43327 36.0552 3.37657C36.0765 2.99366 35.8197 2.64462 35.5595 2.33461C35.3528 2.08867 35.136 1.84862 34.9115 1.61445C34.6811 1.37514 34.4302 1.13508 34.0977 1.01653C33.6742 0.864838 33.2482 0.967928 32.8128 0.919328C32.5824 0.893556 32.124 0.813294 32.1904 1.18737L32.1895 1.1881Z"
        fill="white" />
    <path
        d="M20.4357 6.50797C20.1117 6.70237 19.8481 6.98366 19.7427 7.31281C19.6874 7.48512 19.6755 7.66627 19.6789 7.8452C19.684 8.13312 19.7257 8.42104 19.8039 8.70159C19.8456 8.85107 19.9 9.00276 20.0114 9.12279C20.1526 9.27448 20.3694 9.35769 20.582 9.42322C21.5233 9.71188 22.565 9.75091 23.5319 9.53442C23.8941 9.45342 24.2836 9.30762 24.4282 9.00865C24.4885 8.88421 24.4979 8.74577 24.5038 8.61028C24.52 8.23842 24.5106 7.8614 24.406 7.49985C24.3014 7.1383 24.0957 6.79147 23.7683 6.54921C23.4613 6.32167 23.065 6.19943 22.6654 6.14568C21.8958 6.04185 21.0913 6.11475 20.4357 6.50724V6.50797Z"
        fill="#FF96FB" />
    <path
        d="M24.4094 7.50067C24.3048 7.13912 24.099 6.79229 23.7716 6.55002C23.7053 6.50142 23.6356 6.45724 23.5616 6.41748C23.6602 6.57433 23.7342 6.74369 23.7844 6.91674C23.889 7.27829 23.8983 7.65457 23.8822 8.02717C23.8762 8.16266 23.8669 8.30036 23.8065 8.42554C23.6619 8.7245 23.2733 8.8703 22.9102 8.9513C21.9434 9.16779 20.9025 9.12877 19.9603 8.84011C19.9195 8.82759 19.8779 8.8136 19.837 8.79961C19.8753 8.91669 19.928 9.03009 20.0148 9.12361C20.1559 9.2753 20.3728 9.35851 20.5853 9.42405C21.5267 9.7127 22.5684 9.75173 23.5352 9.53524C23.8975 9.45424 24.287 9.30844 24.4315 9.00947C24.4919 8.88503 24.5012 8.74659 24.5072 8.6111C24.5234 8.23924 24.514 7.86222 24.4094 7.50067Z"
        fill="white" />
    <path opacity="0.31"
        d="M20.5147 6.9115C20.274 7.2031 20.2111 7.57496 20.1762 7.9321C20.1686 8.01236 20.1626 8.09409 20.1907 8.17068C20.2511 8.33194 20.4534 8.42472 20.6473 8.44313C20.7536 8.45344 20.8676 8.44461 20.9534 8.39011C21.1431 8.27009 21.0963 8.02193 21.1201 7.8187C21.1609 7.46377 21.5121 7.1545 21.9212 7.11252C22.047 7.10001 22.1771 7.10958 22.3004 7.08528C22.4246 7.06098 22.5487 6.99029 22.5742 6.88204C22.6559 6.52785 21.8897 6.466 21.6227 6.47263C21.2154 6.48294 20.757 6.61696 20.5138 6.91224L20.5147 6.9115Z"
        fill="white" />
</svg>