<svg width="23" height="22" viewBox="0 0 23 22" fill="none" xmlns="http://www.w3.org/2000/svg">
    <path
        d="M10.1553 1.04272C10.5068 -0.0142391 11.9932 -0.0142391 12.3447 1.04272L14.2229 6.72022C14.3785 7.19383 14.8221 7.51149 15.3176 7.51149H21.3441C22.4676 7.51149 22.9286 8.95542 22.0125 9.60808L17.1786 13.0619C16.7638 13.3507 16.5967 13.8821 16.7522 14.3615L18.6074 19.9755C18.9589 21.0383 17.7547 21.9277 16.8444 21.2808L11.9183 17.7634C11.5208 17.4804 10.9792 17.4804 10.5817 17.7634L5.65558 21.2808C4.74527 21.9277 3.54111 21.0383 3.89257 19.9755L5.74777 14.3615C5.90909 13.8821 5.73625 13.3507 5.32142 13.0619L0.487519 9.60808C-0.42856 8.95542 0.0323614 7.51149 1.15585 7.51149H7.18238C7.67787 7.51149 8.1215 7.19383 8.27707 6.72022L10.1553 1.04272Z"
        fill="black" />
</svg>